<svg xmlns="http://www.w3.org/2000/svg" fill="none" width="80" height="80" viewBox="0 0 80 80"><defs><clipPath id="a"><rect width="80" height="80" rx="0"/></clipPath></defs><g style="mix-blend-mode:passthrough" clip-path="url(#a)"><g style="mix-blend-mode:passthrough"><g style="mix-blend-mode:passthrough"><path d="M60.868 51.127l-16.151-9.325-26.821 15.485 16.151 9.325 26.821-15.485z" fill="#000" fill-opacity=".1"/></g><g style="mix-blend-mode:passthrough"><path d="M65.38 58.265l-8.437-4.871-18.969 10.951 8.437 4.872 18.97-10.952z" fill="#000" fill-opacity=".1"/></g><g style="mix-blend-mode:passthrough"><path d="M33.594 57.749h2.131l-.507 6.46c0 .083-.055.165-.164.228a.87.87 0 0 1-.79 0c-.108-.063-.163-.145-.163-.228l-.507-6.46z" fill-rule="evenodd" fill="#C4AD8E"/><g style="mix-blend-mode:passthrough"><path d="M35.415 58.184c.417-.24.417-.63 0-.87-.416-.24-1.09-.24-1.507 0-.416.24-.416.63 0 .87s1.091.24 1.507 0z" fill="#FF7D00"/></g></g><g style="mix-blend-mode:passthrough"><path d="M20.527 50.205h2.132l-.508 6.46c0 .083-.054.165-.163.228a.87.87 0 0 1-.79 0c-.109-.063-.163-.145-.163-.228l-.508-6.46z" fill-rule="evenodd" fill="#C4AD8E"/><g style="mix-blend-mode:passthrough"><path d="M22.349 50.64c.416-.24.416-.63 0-.87s-1.091-.24-1.507 0c-.417.24-.417.63 0 .87.416.24 1.09.24 1.507 0z" fill="#FF7D00"/></g></g><g style="mix-blend-mode:passthrough"><path d="M53.555 46.23h2.131l-.508 6.46c0 .084-.054.165-.163.229a.87.87 0 0 1-.79 0c-.108-.064-.163-.145-.163-.229l-.507-6.46z" fill-rule="evenodd" fill="#C4AD8E"/><g style="mix-blend-mode:passthrough"><path d="M55.376 46.666c.416-.24.416-.63 0-.87-.416-.241-1.09-.241-1.507 0-.416.24-.416.63 0 .87s1.091.24 1.507 0z" fill="#FF7D00"/></g></g><g style="mix-blend-mode:passthrough"><path d="M40.479 38.682h2.13l-.507 6.46c0 .083-.054.165-.163.228a.87.87 0 0 1-.79 0c-.109-.063-.163-.145-.163-.228l-.507-6.46z" fill-rule="evenodd" fill="#C4AD8E"/><g style="mix-blend-mode:passthrough"><path d="M42.3 39.117c.417-.24.417-.63 0-.87-.416-.24-1.09-.24-1.507 0-.416.24-.416.63 0 .87s1.091.24 1.507 0z" fill="#FF7D00"/></g></g><g style="mix-blend-mode:passthrough"><g style="mix-blend-mode:passthrough"><path d="M41.53 14.923L20.059 27.319l14.536 8.393 21.471-12.397-14.536-8.392z" fill="#FDF3E4"/></g><g style="mix-blend-mode:passthrough"><path d="M56.06 23.312L34.59 35.708v26.294l21.47-12.396V23.312z" fill="#C4AD8E"/></g><g style="mix-blend-mode:passthrough"><path d="M54.953 25.794c0-.259-.16-.38-.354-.268l-18.533 10.7c-.196.114-.353.417-.353.676v22.62c0 .26.157.38.353.267l18.533-10.7c.194-.113.354-.415.354-.676v-22.62z" fill-rule="evenodd" fill="#846133"/></g><g style="mix-blend-mode:passthrough"><path d="M54.315 26.146c0-.25-.154-.367-.341-.258l-17.92 10.346c-.189.109-.341.402-.341.652v21.87c0 .253.152.368.341.259l17.92-10.346c.187-.108.341-.4.341-.653v-21.87z" fill-rule="evenodd" fill="#C4AD8E"/></g><g style="mix-blend-mode:passthrough"><path d="M34.595 35.707L20.06 27.314v26.294l14.536 8.393V35.707z" fill="#F0DAB7"/></g><g style="mix-blend-mode:passthrough"><path d="M42.44 11.352L17.617 25.684l15.348 8.86 24.823-14.33-15.348-8.862z" fill="#FDF3E4"/></g><g style="mix-blend-mode:passthrough"><path d="M32.965 34.354l-15.348-8.86v2.296l15.348 8.861v-2.297z" fill="#F0DAB7"/></g><g style="mix-blend-mode:passthrough"><path d="M42.44 11.352L17.617 25.684l15.348 8.86 24.823-14.33-15.348-8.862z" fill="#FDF3E4"/></g><g style="mix-blend-mode:passthrough"><g style="mix-blend-mode:passthrough"><path d="M56.406 43.072l-20.127 11.62v6.27l20.127-11.62v-6.27z" fill="#B09B80"/></g><g style="mix-blend-mode:passthrough"><path d="M48.553 50.745c0-.286-.174-.418-.389-.294l-2.55 1.473c-.215.124-.39.457-.39.743s.175.418.39.294l2.55-1.473c.215-.124.389-.457.389-.743z" fill-rule="evenodd" fill="#846133"/></g><g style="mix-blend-mode:passthrough"><path d="M48.23 50.594c0-.1-.061-.145-.136-.102L45.36 52.07c-.075.044-.135.16-.135.26s.06.145.135.102l2.734-1.579c.075-.043.136-.159.136-.259z" fill-rule="evenodd" fill="#F6DCB9"/></g><g style="mix-blend-mode:passthrough"><path d="M55.84 42.745l-20.127 11.62.57.33 20.127-11.62-.57-.33z" fill="#F0DAB7"/></g><g style="mix-blend-mode:passthrough"><path d="M36.283 54.694l-.57-.329v6.27l.57.33v-6.27z" fill="#F0DAB7"/></g></g><g style="mix-blend-mode:passthrough"><g style="mix-blend-mode:passthrough"><path d="M56.406 36.612l-20.127 11.62v6.27l20.127-11.62v-6.27z" fill="#C4AD8E"/></g><g style="mix-blend-mode:passthrough"><path d="M48.553 44.285c0-.286-.174-.418-.389-.294l-2.55 1.473c-.215.124-.39.457-.39.743s.175.418.39.294l2.55-1.473c.215-.124.389-.457.389-.743z" fill-rule="evenodd" fill="#846133"/></g><g style="mix-blend-mode:passthrough"><path d="M48.23 44.134c0-.1-.061-.145-.136-.102L45.36 45.61c-.075.044-.135.16-.135.26s.06.145.135.102l2.734-1.579c.075-.043.136-.159.136-.259z" fill-rule="evenodd" fill="#F6DCB9"/></g><g style="mix-blend-mode:passthrough"><path d="M55.84 36.285l-20.127 11.62.57.33 20.127-11.62-.57-.33z" fill="#F0DAB7"/></g><g style="mix-blend-mode:passthrough"><path d="M36.283 48.234l-.57-.329v6.27l.57.33v-6.27z" fill="#F0DAB7"/></g></g><g style="mix-blend-mode:passthrough"><g style="mix-blend-mode:passthrough"><path d="M56.406 30.118l-20.127 11.62v6.27l20.127-11.62v-6.27z" fill="#C4AD8E"/></g><g style="mix-blend-mode:passthrough"><path d="M48.553 37.791c0-.286-.174-.418-.389-.294l-2.55 1.473c-.215.124-.39.457-.39.743s.175.418.39.294l2.55-1.473c.215-.124.389-.457.389-.743z" fill-rule="evenodd" fill="#846133"/></g><g style="mix-blend-mode:passthrough"><path d="M48.23 37.64c0-.1-.061-.146-.136-.103l-2.734 1.58c-.075.042-.135.158-.135.258s.06.146.135.103l2.734-1.579c.075-.043.136-.16.136-.259z" fill-rule="evenodd" fill="#F6DCB9"/></g><g style="mix-blend-mode:passthrough"><path d="M55.84 29.79L35.713 41.412l.57.33L56.41 30.12l-.57-.33z" fill="#F0DAB7"/></g><g style="mix-blend-mode:passthrough"><path d="M36.283 41.74l-.57-.329v6.27l.57.33v-6.27z" fill="#F0DAB7"/></g></g><path d="M36.28 41.739v12.767l10.758-6.211V35.527L36.279 41.74z" fill-rule="evenodd" fill="#000" fill-opacity=".1"/><g style="mix-blend-mode:passthrough"><g style="mix-blend-mode:passthrough"><path d="M54.332 25.686l-18.62 10.75 11.226 6.48 18.62-10.75-11.226-6.48z" fill="#FDF3E4"/></g><g style="mix-blend-mode:passthrough"><path d="M54.041 26.178L36.562 36.27l10.372 5.988 17.48-10.092-10.373-5.988z" fill="#846133"/></g><g style="mix-blend-mode:passthrough"><path d="M54.01 29.667l-14.44 8.336 7.364 4.251 14.438-8.336-7.363-4.251z" fill="#F0DAB7"/></g><g style="mix-blend-mode:passthrough"><path d="M65.562 32.165l-18.619 10.75v4.953l18.62-10.75v-4.953z" fill="#C4AD8E"/></g><g style="mix-blend-mode:passthrough"><path d="M65.562 32.165l-18.619 10.75v4.953l18.62-10.75v-4.953z" fill="#C4AD8E"/></g><g style="mix-blend-mode:passthrough"><path d="M46.938 42.912L35.713 36.43v4.81l11.225 6.48v-4.81z" fill="#F0DAB7"/></g><g style="mix-blend-mode:passthrough"><path d="M66.308 31.07L46.182 42.69v6.27l20.126-11.62v-6.27z" fill="#C4AD8E"/></g><g style="mix-blend-mode:passthrough"><g style="mix-blend-mode:passthrough"><path d="M66.875 31.397l-20.127 11.62v6.27l20.127-11.62v-6.27z" fill="#C4AD8E"/></g><g style="mix-blend-mode:passthrough"><path d="M59.022 39.07c0-.286-.175-.417-.39-.293l-2.55 1.472c-.214.124-.389.457-.389.743s.175.418.39.294l2.55-1.473c.214-.124.389-.456.389-.743z" fill-rule="evenodd" fill="#846133"/></g><g style="mix-blend-mode:passthrough"><path d="M58.699 38.92c0-.1-.061-.146-.136-.103l-2.734 1.578c-.075.044-.136.16-.136.26s.06.145.136.102l2.734-1.579c.075-.043.136-.159.136-.259z" fill-rule="evenodd" fill="#F6DCB9"/></g><g style="mix-blend-mode:passthrough"><path d="M66.308 31.07L46.182 42.69l.57.33L66.879 31.4l-.57-.33z" fill="#F0DAB7"/></g><g style="mix-blend-mode:passthrough"><path d="M46.752 43.02l-.57-.33v6.27l.57.33v-6.27z" fill="#F0DAB7"/></g></g></g><g style="mix-blend-mode:passthrough"><path d="M57.792 20.214L32.969 34.546v2.297L57.792 22.51v-2.297z" fill="#C4AD8E"/></g></g><g style="mix-blend-mode:passthrough"><g style="mix-blend-mode:passthrough"><g style="mix-blend-mode:passthrough"><path d="M58.605 41.192l-.001-.001-.003-.003-.002-.004v-.003l-.003-.002h-.003l-.005.001-.003.003-.001.003h-.004l.002-.004.004-.004q.003-.002.007-.002t.007.002q.002 0 .002.002l.001.004.001.003q0 .002.002.003h.001l-.002.002zm.006.005l-.004-.003.004-.002.005.002-.005.003z" fill="none"/></g></g></g></g></g></svg>