<svg xmlns="http://www.w3.org/2000/svg" fill="none" width="180" height="180" viewBox="0 0 180 180"><defs><linearGradient x1=".443" x2=".668" y2="1" id="a"><stop offset="0%" stop-color="#0081FF"/><stop offset="100%" stop-color="#22CCE2"/></linearGradient><linearGradient x2="1.02" y2="1.01" id="b"><stop offset="0%" stop-color="#FF3D57"/><stop offset="100%" stop-color="#FF8A48"/></linearGradient><linearGradient x1=".443" x2=".668" y2="1" id="c"><stop offset="0%" stop-color="#0081FF"/><stop offset="100%" stop-color="#22CCE2"/></linearGradient></defs><rect width="180" height="180" rx="0" fill="none"/><path d="M81.5 53c2.336 0 4.651.092 6.941.271C73.605 58.621 63 72.821 63 89.5c0 21.263 17.237 38.5 38.5 38.5 4.318 0 8.47-.71 12.344-2.022C112.087 145.611 95.591 161 75.5 161c-1.385 0-2.976-.207-4.739-.6C43.8 148.416 25 121.403 25 90c0-6.22.738-12.269 2.13-18.062C42.061 60.082 60.954 53 81.5 53z" fill-rule="evenodd" fill="url(#a)"/><path d="M102 13c20.515 0 39.156 8.023 52.957 21.102l-18.604 32.222C121.347 54.236 102.269 47 81.5 47 62 47 43.99 53.379 29.443 64.163 40.059 34.346 68.537 13 102 13z" fill-rule="evenodd" fill="url(#b)"/><path d="M136.152 160l-.08.042a59.578 59.578 0 0 1-4.15 2l-.1.043a56.015 56.015 0 0 1-2.203.902 33.118 33.118 0 0 1-.581.221 62.494 62.494 0 0 1-.652.24l-.08.028a58.918 58.918 0 0 1-3.04 1.003l-.077.022a93.997 93.997 0 0 1-.792.231 61.19 61.19 0 0 1-1.871.498c-.808.2-1.622.385-2.442.553l-.09.018a56.054 56.054 0 0 1-1.994.37c-3.252.545-6.593.829-10 .829a59.874 59.874 0 0 1-20.916-3.746c16.838-3.365 29.712-17.711 30.836-35.254h.08V84h37l.002 60.298-.002.002a60.004 60.004 0 0 1-4.81 5.36 60.487 60.487 0 0 1-2.73 2.54l-.07.061a59.963 59.963 0 0 1-6.33 4.817 60.12 60.12 0 0 1-1.475.945l-.036.023a60.12 60.12 0 0 1-2.173 1.283l-.136.077a59.585 59.585 0 0 1-.591.325l-.068.038-.43.23z" fill-rule="evenodd" fill="url(#c)"/></svg>